<?xml version="1.0" encoding="UTF-8"?>
<svg width="19px" height="14px" viewBox="0 0 19 14" version="1.1" xmlns="http://www.w3.org/2000/svg" xmlns:xlink="http://www.w3.org/1999/xlink">
    <!-- Generator: sketchtool 40.1 (33804) - http://www.bohemiancoding.com/sketch -->
    <title>A86F0C58-D1A2-43C3-A35B-B95AC404041A</title>
    <desc>Created with sketchtool.</desc>
    <defs></defs>
    <g id="Landing" stroke="none" stroke-width="1" fill="none" fill-rule="evenodd">
        <g transform="translate(-925.000000, -3840.000000)" id="footer" fill="#4D75A6">
            <g transform="translate(0.000000, 3599.000000)">
                <g id="bottom" transform="translate(211.000000, 213.000000)">
                    <g id="mail" transform="translate(714.000000, 28.000000)">
                        <path d="M18.066481,0.000303797468 L0.667746835,0.000303797468 C0.318227848,0.000303797468 0.034835443,0.283696203 0.034835443,0.63321519 L0.034835443,12.9364051 C0.034835443,13.2859241 0.318227848,13.5693165 0.667746835,13.5693165 L18.066481,13.5693165 C18.416,13.5693165 18.6993924,13.2859241 18.6993924,12.9364051 L18.6993924,0.63321519 C18.6993924,0.283696203 18.416,0.000303797468 18.066481,0.000303797468 L18.066481,0.000303797468 Z M17.4335696,12.3034937 L1.30065823,12.3034937 L1.30065823,1.26612658 L17.4335696,1.26612658 L17.4335696,12.3034937 L17.4335696,12.3034937 Z" id="Shape"></path>
                        <path d="M2.95913924,4.24749367 L9.03508861,7.99113924 C9.13686076,8.05387342 9.25194937,8.08521519 9.36708861,8.08521519 C9.48222785,8.08521519 9.59731646,8.05387342 9.69908861,7.99113924 L15.775038,4.24749367 C16.0726582,4.0641519 16.1652658,3.67422785 15.9819241,3.37665823 C15.7985823,3.07908861 15.408557,2.98643038 15.1110886,3.16982278 L9.36708861,6.70886076 L3.62313924,3.16982278 C3.32567089,2.98658228 2.93574684,3.07903797 2.7523038,3.37665823 C2.56891139,3.67422785 2.66151899,4.0641519 2.95913924,4.24749367 L2.95913924,4.24749367 Z" id="Shape"></path>
                    </g>
                </g>
            </g>
        </g>
    </g>
</svg>