<?xml version="1.0" encoding="UTF-8"?>
<svg width="18px" height="18px" viewBox="0 0 18 18" version="1.1" xmlns="http://www.w3.org/2000/svg" xmlns:xlink="http://www.w3.org/1999/xlink">
    <!-- Generator: sketchtool 40.1 (33804) - http://www.bohemiancoding.com/sketch -->
    <title>BA08A43A-A151-4A29-9E57-815AEFC1DA1F</title>
    <desc>Created with sketchtool.</desc>
    <defs></defs>
    <g id="Landing" stroke="none" stroke-width="1" fill="none" fill-rule="evenodd">
        <g transform="translate(-925.000000, -3812.000000)" id="footer" fill="#4D75A6">
            <g transform="translate(0.000000, 3599.000000)">
                <g id="bottom" transform="translate(211.000000, 213.000000)">
                    <path d="M727.534386,17.996 C726.150234,17.996 725.055044,17.0782785 724.255551,16.2787848 L715.717475,7.74075949 C715.003652,7.02693671 714.165829,6.05113924 714.022032,4.83118987 C713.878741,3.61620253 714.433323,2.40136709 715.717475,1.11721519 C716.458842,0.375898734 717.28269,0 718.166234,0 C720.270943,0 721.878386,2.18253165 722.014234,2.37240506 C722.729424,3.32313924 722.426133,4.4644557 722.158437,5.47179747 C721.872918,6.54637975 721.723196,7.23032911 722.221627,7.72875949 L724.2675,9.77453165 C724.492209,9.99924051 724.755905,10.099443 725.12269,10.0993924 C725.539753,10.0993418 726.018032,9.9723038 726.524412,9.83777215 C727.076867,9.69098734 727.648108,9.53924051 728.211196,9.53924051 C728.757829,9.53924051 729.23307,9.68820253 729.623905,9.98207595 C729.80426,10.1110886 731.814639,11.591443 731.984715,13.5628354 C732.069576,14.546481 731.697576,15.4602532 730.879044,16.2787848 C729.723601,17.4342785 728.629525,17.996 727.534386,17.996 L727.534386,17.996 Z M718.166234,1.26587342 C717.623044,1.26587342 717.114791,1.51002532 716.612513,2.01235443 C715.62031,3.00450633 715.184158,3.87807595 715.279044,4.68298734 C715.355753,5.33321519 715.766994,6.00025316 716.612513,6.84577215 L725.150589,15.3837975 C726.081779,16.3149873 726.816918,16.7302278 727.534336,16.7302278 C728.276665,16.7302278 729.077931,16.2898228 729.983956,15.3837975 C730.532614,14.8351899 730.774589,14.2762532 730.723804,13.6751392 C730.602943,12.2439494 728.901627,11.0217215 728.884412,11.0095696 C728.878842,11.0055696 728.87231,11.0008101 728.866741,10.9966582 C728.694791,10.8660253 728.486437,10.8051646 728.211146,10.8051646 C727.813374,10.8051646 727.34512,10.9295696 726.849323,11.0612658 C726.286741,11.2107342 725.705019,11.3652658 725.12269,11.3653165 L725.122386,11.3653165 C724.42269,11.3653165 723.833931,11.1312911 723.372361,10.6696709 L721.326488,8.62394937 C720.287247,7.58465823 720.646386,6.23291139 720.935044,5.14683544 C721.192563,4.17772152 721.325374,3.55832911 720.999652,3.12956962 C720.994994,3.12344304 720.990488,3.11726582 720.986032,3.11098734 C720.973728,3.09341772 719.66026,1.26587342 718.166234,1.26587342 L718.166234,1.26587342 Z" id="phone"></path>
                </g>
            </g>
        </g>
    </g>
</svg>