<?xml version="1.0" encoding="UTF-8"?>
<svg width="32px" height="29px" viewBox="0 0 32 29" version="1.1" xmlns="http://www.w3.org/2000/svg" xmlns:xlink="http://www.w3.org/1999/xlink">
    <!-- Generator: sketchtool 40.1 (33804) - http://www.bohemiancoding.com/sketch -->
    <title>3FCCB6AD-2A5F-487E-968E-A2A58501EFE1</title>
    <desc>Created with sketchtool.</desc>
    <defs></defs>
    <g id="Material" stroke="none" stroke-width="1" fill="none" fill-rule="evenodd" stroke-linecap="round" stroke-linejoin="round">
        <g id="6.-Lectures_end-course-popup" transform="translate(-21.000000, -816.000000)" stroke="#B0C1CA" stroke-width="2">
            <g id="sidebar">
                <g id="7" transform="translate(0.000000, 770.000000)">
                    <g id="forum" transform="translate(22.000000, 47.000000)">
                        <ellipse id="Oval-3" cx="20.8" cy="9.4" rx="4.4" ry="4.4"></ellipse>
                        <path d="M12,27 L12,23.6830612 C12,18.8323104 15.9497835,14.9 20.8,14.9 C25.6601058,14.9 29.6,18.8301308 29.6,23.6830612 L29.6,27" id="Rectangle-3"></path>
                        <path d="M8.78320894,8.71454848 C8.07285749,8.89907889 7.30345253,9 6.5,9 C2.91014913,9 0,6.98528137 0,4.5 C0,2.01471863 2.91014913,0 6.5,0 C10.0898509,0 13,2.01471863 13,4.5 C13,5.45790711 12.5676744,6.34590843 11.8307364,7.07558717 L12.0283357,10.0392739 L8.78320894,8.71454848 Z" id="Combined-Shape"></path>
                    </g>
                </g>
            </g>
        </g>
    </g>
</svg>