<?xml version="1.0" encoding="UTF-8"?>
<svg width="30px" height="31px" viewBox="0 0 30 31" version="1.1" xmlns="http://www.w3.org/2000/svg" xmlns:xlink="http://www.w3.org/1999/xlink">
    <!-- Generator: sketchtool 40.1 (33804) - http://www.bohemiancoding.com/sketch -->
    <title>DB85253F-5939-477C-9DFD-6F36A80C8AD0</title>
    <desc>Created with sketchtool.</desc>
    <defs></defs>
    <g id="Material" stroke="none" stroke-width="1" fill="none" fill-rule="evenodd">
        <g id="3.-Courses" transform="translate(-22.000000, -94.000000)" stroke-width="2" stroke="#B0C1CA">
            <g id="sidebar">
                <g id="1" transform="translate(0.000000, 50.000000)">
                    <path d="M47.3940907,72.9931545 C47.3940907,73.5492199 46.9473519,74 46.3960543,74 L42.1803066,74 C41.6291063,74 41.1822702,73.555163 41.1822702,73.0044225 L41.1822702,63.9955775 C41.1822702,63.4457352 40.7369709,63 40.1832159,63 L33.8988971,63 C33.3471347,63 32.8998429,63.444837 32.8998429,63.9955775 L32.8998429,73.0044225 C32.8998429,73.5542648 32.4531041,74 31.9018064,74 L27.6860588,74 C27.1348585,74 26.6880224,73.5500512 26.6880224,72.9931545 L26.6880224,60 L24.5077161,60 C22.8529546,60 22.5065725,59.1029399 23.7365113,57.9941413 L37.0410565,46 L50.3456017,57.9941413 C51.5744386,59.1019465 51.2240521,60 49.5743969,60 L47.3940907,60 L47.3940907,72.9931545 Z" id="dashboard"></path>
                </g>
            </g>
        </g>
    </g>
</svg>