<?xml version="1.0" encoding="UTF-8"?>
<svg width="24px" height="29px" viewBox="0 0 24 29" version="1.1" xmlns="http://www.w3.org/2000/svg" xmlns:xlink="http://www.w3.org/1999/xlink">
    <!-- Generator: Sketch 40.1 (33804) - http://www.bohemiancoding.com/sketch -->
    <title>events</title>
    <desc>Created with Sketch.</desc>
    <defs></defs>
    <g id="Material_new" stroke="none" stroke-width="1" fill="none" fill-rule="evenodd">
        <g id="4.-Lectures" transform="translate(-25.000000, -335.000000)" fill="#000000">
            <g id="sidebar">
                <g id="3" transform="translate(0.000000, 290.000000)">
                    <g id="events" transform="translate(25.000000, 45.000000)">
                        <path d="M22,28 L23,27 L1,27 L2,28 L2,4 L1,5 L23,5 L22,4 L22,28 Z M23,3 L1,3 C0.44771525,3 0,3.44771525 0,4 L0,28 C0,28.5522847 0.44771525,29 1,29 L23,29 C23.5522847,29 24,28.5522847 24,28 L24,4 C24,3.44771525 23.5522847,3 23,3 Z" id="Rectangle-4"></path>
                        <path d="M3,6.13059383 C3,6.68287858 3.44771525,7.13059383 4,7.13059383 C4.55228475,7.13059383 5,6.68287858 5,6.13059383 L5,1.13059383 C5,0.578309084 4.55228475,0.130593834 4,0.130593834 C3.44771525,0.130593834 3,0.578309084 3,1.13059383 L3,6.13059383 Z" id="Path-13"></path>
                        <path d="M7,6.13059383 C7,6.68287858 7.44771525,7.13059383 8,7.13059383 C8.55228475,7.13059383 9,6.68287858 9,6.13059383 L9,1.13059383 C9,0.578309084 8.55228475,0.130593834 8,0.130593834 C7.44771525,0.130593834 7,0.578309084 7,1.13059383 L7,6.13059383 Z" id="Path-13"></path>
                        <path d="M19,6.13059383 C19,6.68287858 19.4477153,7.13059383 20,7.13059383 C20.5522847,7.13059383 21,6.68287858 21,6.13059383 L21,1.13059383 C21,0.578309084 20.5522847,0.130593834 20,0.130593834 C19.4477153,0.130593834 19,0.578309084 19,1.13059383 L19,6.13059383 Z" id="Path-13"></path>
                        <path d="M15,6.13059383 C15,6.68287858 15.4477153,7.13059383 16,7.13059383 C16.5522847,7.13059383 17,6.68287858 17,6.13059383 L17,1.13059383 C17,0.578309084 16.5522847,0.130593834 16,0.130593834 C15.4477153,0.130593834 15,0.578309084 15,1.13059383 L15,6.13059383 Z" id="Path-13"></path>
                        <path d="M8.17791959,9.62239411 C7.62563484,9.62239411 7.17791959,10.0701094 7.17791959,10.6223941 L7.17791959,16.0533803 C7.17791959,16.6056651 7.62563484,17.0533803 8.17791959,17.0533803 L15.9941069,17.0533803 L14.9941069,16.0533803 L14.9941069,21.5550648 L15.9941069,20.5550648 L7.68183338,20.5550648 C7.12954863,20.5550648 6.68183338,21.00278 6.68183338,21.5550648 C6.68183338,22.1073495 7.12954863,22.5550648 7.68183338,22.5550648 L15.9941069,22.5550648 C16.5463916,22.5550648 16.9941069,22.1073495 16.9941069,21.5550648 L16.9941069,16.0533803 C16.9941069,15.5010956 16.5463916,15.0533803 15.9941069,15.0533803 L8.17791959,15.0533803 L9.17791959,16.0533803 L9.17791959,10.6223941 L8.17791959,11.6223941 L16.4126216,11.6223941 C16.9649064,11.6223941 17.4126216,11.1746789 17.4126216,10.6223941 C17.4126216,10.0701094 16.9649064,9.62239411 16.4126216,9.62239411 L8.17791959,9.62239411 Z" id="Path-12"></path>
                    </g>
                </g>
            </g>
        </g>
    </g>
</svg>