<?xml version="1.0" encoding="UTF-8"?>
<svg width="15px" height="18px" viewBox="0 0 15 18" version="1.1" xmlns="http://www.w3.org/2000/svg" xmlns:xlink="http://www.w3.org/1999/xlink">
    <!-- Generator: sketchtool 40.1 (33804) - http://www.bohemiancoding.com/sketch -->
    <title>8289D9F1-C655-42D5-957B-912067EE680E</title>
    <desc>Created with sketchtool.</desc>
    <defs></defs>
    <g id="Material" stroke="none" stroke-width="1" fill="none" fill-rule="evenodd">
        <g id="16.-Events_event-page" transform="translate(-714.000000, -264.000000)" stroke="#6EB5D4">
            <g id="events" transform="translate(116.000000, 88.000000)">
                <g id="event" transform="translate(0.000000, 82.000000)">
                    <g id="basic" transform="translate(595.000000, 28.000000)">
                        <path d="M10.5882353,83 C10.5882353,83 17.1764706,77.2268172 17.1764706,73.5882353 C17.1764706,69.9496534 14.2268172,67 10.5882353,67 C6.94965341,67 4,69.9496534 4,73.5882353 C4,77.2268172 10.5882353,83 10.5882353,83 Z M10.5882353,76.4117647 C12.1476275,76.4117647 13.4117647,75.1476275 13.4117647,73.5882353 C13.4117647,72.0288431 12.1476275,70.7647059 10.5882353,70.7647059 C9.02884306,70.7647059 7.76470588,72.0288431 7.76470588,73.5882353 C7.76470588,75.1476275 9.02884306,76.4117647 10.5882353,76.4117647 Z" id="place"></path>
                    </g>
                </g>
            </g>
        </g>
    </g>
</svg>