<?xml version="1.0" encoding="UTF-8"?>
<svg width="11px" height="11px" viewBox="0 0 11 11" version="1.1" xmlns="http://www.w3.org/2000/svg" xmlns:xlink="http://www.w3.org/1999/xlink">
    <!-- Generator: sketchtool 40.1 (33804) - http://www.bohemiancoding.com/sketch -->
    <title>CA2D3E26-41F5-4241-8F1B-8E76877CB9BA</title>
    <desc>Created with sketchtool.</desc>
    <defs></defs>
    <g id="Material" stroke="none" stroke-width="1" fill="none" fill-rule="evenodd">
        <g id="11.-Teachers_chat" transform="translate(-712.000000, -852.000000)">
            <g id="about" transform="translate(116.000000, 549.000000)">
                <g id="links" transform="translate(596.000000, 214.000000)">
                    <g id="site-icon" transform="translate(0.000000, 89.000000)">
                        <path d="M10.375,5.5 C10.375,2.80761184 8.19238816,0.625 5.5,0.625 C2.80761184,0.625 0.625,2.80761184 0.625,5.5 C0.625,8.19238816 2.80761184,10.375 5.5,10.375 C8.19238816,10.375 10.375,8.19238816 10.375,5.5 Z" id="Path-Copy" stroke="#B0C1CA"></path>
                        <path d="M5.5,10 C7.98528137,10 10,7.98528137 10,5.5 C10,3.01471863 7.98528137,1 5.5,1 C3.01471863,1 1,3.01471863 1,5.5 C1,7.98528137 3.01471863,10 5.5,10 Z M10,5.5 C10,3.01471863 7.98528137,1 5.5,1 C4.21239089,1 3.05109084,1.54079336 2.23084164,2.4076383 C2.31367718,2.61955584 2.85321095,2.4076383 4.08048368,2.4076383 C5.30775641,2.4076383 5.37747314,2.39444764 6.31818182,2.67629852 C7.2588905,2.9581494 6.23946055,3.44697979 7.54940158,3.44697979 C8.8593426,3.44697979 8.90733608,4.57119138 7.27097227,4.57119138 C5.63460846,4.57119138 4.7498664,5.07056465 4.94849798,6.01335118 C5.14712956,6.95613771 4.08048368,8.41804901 1.44849439,7.46075412 C2.17720414,8.96370812 3.7175826,10 5.5,10 C5.65961154,10 5.81728222,9.99169018 5.972603,9.97547956 C5.00135907,9.81995316 5.57550243,8.97727275 6.31818182,8.97727273 C7.13636364,8.9772727 8.36363643,8.36363639 6.52272727,7.95454545 C4.68181812,7.54545452 9.19031342,5.70454545 9.19031342,8.07586807 C9.70062087,7.34613633 10,6.45803004 10,5.5 Z" id="Combined-Shape" fill="#B0C1CA"></path>
                    </g>
                </g>
            </g>
        </g>
    </g>
</svg>