<svg width="314" height="173" viewBox="0 0 314 173" xmlns="http://www.w3.org/2000/svg"><title>337972B9-D387-41C4-81B7-F119F4D314BF</title><g fill="none" fill-rule="evenodd"><g transform="translate(88.073 27.497)"><path d="M106.394 115.715H3.443A3.445 3.445 0 0 1 0 112.283V3.432A3.442 3.442 0 0 1 3.445 0h139.76a3.444 3.444 0 0 1 3.444 3.437v74.93M.544 17.758h145.49" stroke="#B0C1CA" stroke-width="3" stroke-linecap="round" stroke-linejoin="round"/><path d="M80.503 85.739c1.581 0 2.863-1.277 2.863-2.823v-32.74c0-1.56-1.278-2.823-2.895-2.823h-48.06c-1.6 0-2.896 1.277-2.896 2.823v32.74c0 1.559 1.299 2.823 2.876 2.823h8.07v10.34l10.638-10.34h29.404" stroke="#B0C1CA" stroke-width="3" stroke-linecap="round" stroke-linejoin="round"/><path d="M61.863 42.455V37.28c0-1.518 1.244-2.749 2.819-2.749h46.796c1.557 0 2.819 1.244 2.819 2.749v31.879c0 1.517-1.265 2.748-2.8 2.748h-7.858v10.068L93.282 71.906h-5.544" stroke="#B0C1CA" stroke-width="3" stroke-linecap="round" stroke-linejoin="round"/><path d="M38.282 59.003h36.024M38.282 65.877h28.004M38.282 72.752H49.1" stroke="#B0C1CA" stroke-width="3" stroke-linecap="round"/><ellipse fill="#B0C1CA" cx="11.457" cy="9.166" rx="2.291" ry="2.291"/><ellipse fill="#B0C1CA" cx="21.768" cy="9.166" rx="2.291" ry="2.291"/><ellipse fill="#B0C1CA" cx="32.079" cy="9.166" rx="2.291" ry="2.291"/><ellipse stroke="#B0C1CA" stroke-width="3" stroke-linecap="round" fill="#FAFAFA" cx="138.629" cy="108.841" rx="22.914" ry="22.914"/><path d="M130.61 100.821l16.202 16.203M146.812 100.821l-16.203 16.203" stroke="#B0C1CA" stroke-width="3" stroke-linecap="round"/></g><g opacity=".4" stroke="#B0C1CA" stroke-width="3" stroke-linecap="round"><path d="M36.5 32.652h36.52M82.328 13.175h36.52M105.242 1.719h82.348M2.13 45.255h13.043m7.33 0H73.02M13.586 100.248h59.435M25.043 123.162h47.978M47.957 134.62h25.064M58.268 157.533h60.278m7.36 0h73.141M88.057 171.281h78.898m16.545 0h45.335M253.053 55.566h36.52M253.053 45.255h13.606M253.053 100.248h36.371m6.216 0h16.847M253.053 86.5h47.977M259.927 134.62h25.064M129.318 13.175h72.667m14.043 0h41.466"/></g></g></svg>