<?xml version="1.0" encoding="UTF-8"?>
<svg width="16px" height="13px" viewBox="0 0 16 13" version="1.1" xmlns="http://www.w3.org/2000/svg" xmlns:xlink="http://www.w3.org/1999/xlink">
    <!-- Generator: sketchtool 40.1 (33804) - http://www.bohemiancoding.com/sketch -->
    <title>E494A16F-8A41-4E80-9A04-9CFD9D37083B</title>
    <desc>Created with sketchtool.</desc>
    <defs></defs>
    <g id="Mockups" stroke="none" stroke-width="1" fill="none" fill-rule="evenodd">
        <g id="index-desktop" transform="translate(-1108.000000, -17.000000)" fill="#FFFFFF">
            <g id="first">
                <g id="top" transform="translate(871.000000, 9.000000)">
                    <g id="soc" transform="translate(197.000000, 6.000000)">
                        <path d="M55.1246618,3.97977594 C54.5735084,4.23076938 53.980094,4.40050562 53.3576252,4.47634531 C53.9933005,4.08631281 54.4810624,3.46785844 54.7108565,2.73113031 C54.1156815,3.09227156 53.4579952,3.35500187 52.7554068,3.49584687 C52.195449,2.88280969 51.3951318,2.5 50.5094127,2.5 C48.8110502,2.5 47.4331668,3.912965 47.4331668,5.65547125 C47.4331668,5.90285312 47.4595799,6.14301187 47.5124062,6.37414219 C44.9547374,6.24232562 42.687613,4.98736 41.1688596,3.07602031 C40.9038484,3.54369812 40.752413,4.08631281 40.752413,4.66413875 C40.752413,5.75839656 41.2956427,6.72444937 42.1214921,7.29053813 C41.6178824,7.27518969 41.1424465,7.13163594 40.7268805,6.89689406 L40.7268805,6.93571688 C40.7268805,8.46515 41.7878068,9.74088125 43.1965055,10.0297941 C42.9385374,10.1038281 42.6664824,10.140845 42.3856234,10.140845 C42.1875249,10.140845 41.993829,10.1218853 41.8062959,10.0848681 C42.1980902,11.3380281 43.3338537,12.2508125 44.6809218,12.2751897 C43.6279193,13.1220656 42.3002209,13.6267606 40.8589459,13.6267606 C40.6106627,13.6267606 40.3650209,13.612315 40.1246618,13.5834238 C41.4866974,14.4772481 43.1049399,15 44.8420415,15 C50.5032496,15 53.5979846,10.1923078 53.5979846,6.02202969 C53.5979846,5.88479594 53.5953434,5.74756219 53.5900605,5.61303719 C54.191399,5.16793062 54.7134977,4.61267594 55.1246618,3.97977594" id="Twitter"></path>
                    </g>
                </g>
            </g>
        </g>
    </g>
</svg>