<?xml version="1.0" encoding="UTF-8"?>
<svg width="21px" height="13px" viewBox="0 0 21 13" version="1.1" xmlns="http://www.w3.org/2000/svg" xmlns:xlink="http://www.w3.org/1999/xlink">
    <!-- Generator: sketchtool 40.1 (33804) - http://www.bohemiancoding.com/sketch -->
    <title>A33F0437-4939-4380-8544-63A2A646430B</title>
    <desc>Created with sketchtool.</desc>
    <defs></defs>
    <g id="Mockups" stroke="none" stroke-width="1" fill="none" fill-rule="evenodd">
        <g id="index-desktop" transform="translate(-1155.000000, -17.000000)" fill="#FFFFFF">
            <g id="first">
                <g id="top" transform="translate(871.000000, 9.000000)">
                    <g id="soc" transform="translate(197.000000, 6.000000)">
                        <path d="M104.980907,7.63613869 L104.980907,5.47029702 L103.436658,5.47029702 L103.436658,7.63613869 L101.212938,7.63613869 L101.212938,9.18316845 L103.436658,9.18316845 L103.436658,11.4108911 L104.980907,11.4108911 L104.980907,9.18316845 L107.142857,9.18316845 L107.142857,7.63613869 L104.980907,7.63613869 L104.980907,7.63613869 L104.980907,7.63613869 Z M93.738769,7.51237619 L93.738769,9.98762381 C93.738769,9.98762381 96.135692,9.98440595 97.1116577,9.98440595 C96.5831536,11.589047 95.7613658,12.4628714 93.738769,12.4628714 C91.691897,12.4628714 90.0943396,10.8005568 90.0943396,8.75 C90.0943396,6.69944315 91.691897,5.03712857 93.738769,5.03712857 C94.8209795,5.03712857 95.5199068,5.41819315 96.1610176,5.94931935 C96.6742027,5.43521042 96.6313342,5.36194315 97.9369667,4.12673274 C96.8286277,3.11608899 95.3555369,2.5 93.738769,2.5 C90.2931771,2.5 87.5,5.29820536 87.5,8.75 C87.5,12.2017327 90.2931771,15 93.738769,15 C98.8889658,15 100.147776,10.5074256 99.7304583,7.51237619 L93.738769,7.51237619 L93.738769,7.51237619 L93.738769,7.51237619 Z" id="GooglePlus"></path>
                    </g>
                </g>
            </g>
        </g>
    </g>
</svg>