<svg width="21" height="16" viewBox="0 0 21 16" xmlns="http://www.w3.org/2000/svg"><title>F50A4B69-1947-482E-8AA0-C7B961B9B296</title><g stroke="#B0C1CA" fill="none" fill-rule="evenodd" stroke-linecap="round"><path d="M18.82 14.682H2.27a.953.953 0 0 1-.953-.953V2.27c0-.526.427-.953.953-.953H18.82c.526 0 .953.427.953.953V13.73a.954.954 0 0 1-.953.953z"/><path d="M4.5 5.455a2.227 2.227 0 1 1 4.455 0 2.227 2.227 0 0 1-4.455 0zM1.365 13.998l4.408-4.407 2.545 2.545"/><path d="M7.682 11.5l5.09-5.09 7 7"/></g></svg>