<?xml version="1.0" encoding="UTF-8"?>
<svg width="18px" height="18px" viewBox="0 0 18 18" version="1.1" xmlns="http://www.w3.org/2000/svg" xmlns:xlink="http://www.w3.org/1999/xlink">
    <!-- Generator: Sketch 40.1 (33804) - http://www.bohemiancoding.com/sketch -->
    <title>assets/social-icons/footer/twitter</title>
    <desc>Created with Sketch.</desc>
    <defs></defs>
    <g id="Assets" stroke="none" stroke-width="1" fill="none" fill-rule="evenodd">
        <g id="assets/social-icons/footer/twitter" fill="#000000">
            <path d="M16,5.30220283 C15.4855901,5.52307705 14.9317367,5.67244495 14.3507659,5.73918388 C14.9440628,5.39595528 15.3993072,4.85171543 15.6137817,4.20339468 C15.058285,4.52119898 14.4444445,4.75240165 13.7886953,4.87634525 C13.266068,4.33687252 12.5191053,4 11.6924342,4 C10.1072959,4 8.82127133,5.2434092 8.82127133,6.7768147 C8.82127133,6.99451075 8.84592358,7.20585045 8.89522808,7.40924513 C6.50807058,7.29324655 4.39208783,6.1888768 2.97458462,4.50689788 C2.72724079,4.91845435 2.58590117,5.39595528 2.58590117,5.9044421 C2.58590117,6.86738898 3.09291554,7.71751545 3.86370829,8.21567355 C3.39367258,8.20216693 2.94993238,8.07583963 2.56207083,7.86926678 L2.56207083,7.90343085 C2.56207083,9.249332 3.55226867,10.3719755 4.86705417,10.6262188 C4.62628392,10.6913687 4.37236592,10.7239436 4.11023079,10.7239436 C3.92533892,10.7239436 3.74455604,10.7072591 3.56952513,10.674684 C3.93519988,11.7774648 4.99524575,12.580715 6.25250933,12.6021669 C5.269707,13.3474178 4.03052179,13.7915494 2.68533179,13.7915494 C2.45360088,13.7915494 2.22433513,13.7788372 2,13.7534129 C3.27123325,14.5399784 4.78159292,15 6.40288771,15 C11.686682,15 14.5751013,10.7692309 14.5751013,7.09938613 C14.5751013,6.97862042 14.5726361,6.85785473 14.5677055,6.73947272 C15.1289547,6.34777895 15.6162469,5.85915482 16,5.30220283" id="Twitter"></path>
        </g>
    </g>
</svg>