<?xml version="1.0" encoding="UTF-8"?>
<svg width="18px" height="18px" viewBox="0 0 18 18" version="1.1" xmlns="http://www.w3.org/2000/svg" xmlns:xlink="http://www.w3.org/1999/xlink">
    <!-- Generator: Sketch 40.1 (33804) - http://www.bohemiancoding.com/sketch -->
    <title>assets/social-icons/footer/google+</title>
    <desc>Created with Sketch.</desc>
    <defs></defs>
    <g id="Assets" stroke="none" stroke-width="1" fill="none" fill-rule="evenodd">
        <g id="assets/social-icons/footer/google+" fill="#000000">
            <path d="M16.0188679,7.70657073 L16.0188679,5.72187218 L14.6037736,5.72187218 L14.6037736,7.70657073 L12.5660378,7.70657073 L12.5660378,9.12421255 L14.6037736,9.12421255 L14.6037736,11.1656165 L16.0188679,11.1656165 L16.0188679,9.12421255 L18,9.12421255 L18,7.70657073 L16.0188679,7.70657073 L16.0188679,7.70657073 L16.0188679,7.70657073 Z M5.71698109,7.59315927 L5.71698109,9.86138618 C5.71698109,9.86138618 7.91343409,9.85843745 8.80777364,9.85843745 C8.32347164,11.3288722 7.57041518,12.1296131 5.71698109,12.1296131 C3.841302,12.1296131 2.37735845,10.6063285 2.37735845,8.72727273 C2.37735845,6.848217 3.841302,5.32493236 5.71698109,5.32493236 C6.70867936,5.32493236 7.349151,5.67412609 7.93664155,6.16083082 C8.40690573,5.68972009 8.36762264,5.62258064 9.56405673,4.49067873 C8.54841518,3.56456155 7.19852836,3 5.71698109,3 C2.55956591,3 0,5.56417364 0,8.72727273 C0,11.8903151 2.55956591,14.4545455 5.71698109,14.4545455 C10.4364341,14.4545455 11.5899622,10.3377136 11.2075473,7.59315927 L5.71698109,7.59315927 L5.71698109,7.59315927 L5.71698109,7.59315927 Z" id="google+"></path>
        </g>
    </g>
</svg>