<?xml version="1.0" encoding="UTF-8"?>
<svg width="18px" height="18px" viewBox="0 0 18 18" version="1.1" xmlns="http://www.w3.org/2000/svg" xmlns:xlink="http://www.w3.org/1999/xlink">
    <!-- Generator: Sketch 40.1 (33804) - http://www.bohemiancoding.com/sketch -->
    <title>assets/social-icons/footer/youtube</title>
    <desc>Created with Sketch.</desc>
    <defs></defs>
    <g id="Assets" stroke="none" stroke-width="1" fill="none" fill-rule="evenodd">
        <g id="assets/social-icons/footer/youtube" fill="#000000">
            <path d="M7.1415,11.2129115 L7.1409375,6.41920306 L12.0043125,8.82432141 L7.1415,11.2129115 L7.1415,11.2129115 Z M16.84,5.58852812 C16.84,5.58852812 16.6835,4.41289376 16.204,3.895188 C15.5955,3.21539965 14.9135,3.21220059 14.601,3.17274635 C12.362,3 9.0035,3 9.0035,3 L8.9965,3 C8.9965,3 5.638,3 3.399,3.17274635 C3.086,3.21220059 2.4045,3.21539965 1.7955,3.895188 C1.316,4.41289376 1.16,5.58852812 1.16,5.58852812 C1.16,5.58852812 1,6.96943165 1,8.34980224 L1,9.64433294 C1,11.0252365 1.16,12.4056071 1.16,12.4056071 C1.16,12.4056071 1.316,13.5812414 1.7955,14.0989468 C2.4045,14.7787355 3.204,14.7574087 3.56,14.8283202 C4.84,14.9594792 9,15 9,15 C9,15 12.362,14.9946685 14.601,14.8219221 C14.9135,14.7819346 15.5955,14.7787355 16.204,14.0989468 C16.6835,13.5812414 16.84,12.4056071 16.84,12.4056071 C16.84,12.4056071 17,11.0252365 17,9.64433294 L17,8.34980224 C17,6.96943165 16.84,5.58852812 16.84,5.58852812 L16.84,5.58852812 L16.84,5.58852812 Z" id="Youtube"></path>
        </g>
    </g>
</svg>