<?xml version="1.0" encoding="UTF-8"?>
<svg width="18px" height="18px" viewBox="0 0 18 18" version="1.1" xmlns="http://www.w3.org/2000/svg" xmlns:xlink="http://www.w3.org/1999/xlink">
    <!-- Generator: Sketch 40.1 (33804) - http://www.bohemiancoding.com/sketch -->
    <title>assets/social-icons/footer/instagram</title>
    <desc>Created with Sketch.</desc>
    <defs></defs>
    <g id="Assets" stroke="none" stroke-width="1" fill="none" fill-rule="evenodd">
        <g id="assets/social-icons/footer/instagram" fill="#000000">
            <g id="Instagram" transform="translate(2.000000, 2.000000)">
                <path d="M10.6951872,7.05882353 C10.6951872,4.93237959 8.97136372,3.20855615 6.84491979,3.20855615 C4.71847585,3.20855615 2.99465241,4.93237959 2.99465241,7.05882353 C2.99465241,9.18526747 4.71847585,10.9090909 6.84491979,10.9090909 C8.97136372,10.9090909 10.6951872,9.18526747 10.6951872,7.05882353 L10.6951872,7.05882353 L10.6951872,7.05882353 Z M4.27807487,7.05882353 C4.27807487,5.64119422 5.42729048,4.49197861 6.84491979,4.49197861 C8.26254909,4.49197861 9.41176471,5.64119422 9.41176471,7.05882353 C9.41176471,8.47645283 8.26254909,9.62566845 6.84491979,9.62566845 C5.42729048,9.62566845 4.27807487,8.47645283 4.27807487,7.05882353 L4.27807487,7.05882353 L4.27807487,7.05882353 Z M10.9090909,4.27807487 C11.381634,4.27807487 11.7647059,3.89500299 11.7647059,3.42245989 C11.7647059,2.94991679 11.381634,2.56684492 10.9090909,2.56684492 C10.4365478,2.56684492 10.0534759,2.94991679 10.0534759,3.42245989 C10.0534759,3.89500299 10.4365478,4.27807487 10.9090909,4.27807487 L10.9090909,4.27807487 L10.9090909,4.27807487 Z" id="Combined-Shape"></path>
                <path d="M3.21232888,1.4973262 L10.4775107,1.4973262 C11.5429829,1.4973262 12.4064171,2.36065979 12.4064171,3.42623262 L12.4064171,10.6914145 C12.4064171,11.7568866 11.5430836,12.6203209 10.4775107,12.6203209 L3.21232888,12.6203209 C2.14685669,12.6203209 1.28342246,11.7569873 1.28342246,10.6914145 L1.28342246,3.42623262 C1.28342246,2.36076043 2.14675604,1.4973262 3.21232888,1.4973262 L3.21232888,1.4973262 L3.21232888,1.4973262 Z M0,10.6914145 C0,12.4658354 1.43807553,13.9037433 3.21232888,13.9037433 L10.4775107,13.9037433 C12.2519317,13.9037433 13.6898396,12.4656678 13.6898396,10.6914145 L13.6898396,3.42623262 C13.6898396,1.65181164 12.2517641,0.213903743 10.4775107,0.213903743 L3.21232888,0.213903743 C1.43790789,0.213903743 0,1.65197927 0,3.42623262 L0,10.6914145 L0,10.6914145 L0,10.6914145 Z" id="Rectangle"></path>
            </g>
        </g>
    </g>
</svg>