<?xml version="1.0" encoding="UTF-8"?>
<svg width="22px" height="14px" viewBox="0 0 22 14" version="1.1" xmlns="http://www.w3.org/2000/svg" xmlns:xlink="http://www.w3.org/1999/xlink">
    <!-- Generator: sketchtool 40.1 (33804) - http://www.bohemiancoding.com/sketch -->
    <title>57ECF952-54DA-495C-94FE-8B08E8E09242</title>
    <desc>Created with sketchtool.</desc>
    <defs></defs>
    <g id="Material" stroke="none" stroke-width="1" fill="none" fill-rule="evenodd">
        <g id="32.-Login" transform="translate(-565.000000, -563.000000)" fill="#FFFFFF">
            <g id="login" transform="translate(344.000000, 201.000000)">
                <g id="entrance-buttons" transform="translate(25.000000, 252.000000)">
                    <g id="g+" transform="translate(185.000000, 95.000000)">
                        <g id="GooglePlus">
                            <path d="M30.5786163,20.7524753 L30.5786163,18.3267327 L28.8490567,18.3267327 L28.8490567,20.7524753 L26.3584907,20.7524753 L26.3584907,22.4851487 L28.8490567,22.4851487 L28.8490567,24.980198 L30.5786163,24.980198 L30.5786163,22.4851487 L33,22.4851487 L33,20.7524753 L30.5786163,20.7524753 L30.5786163,20.7524753 L30.5786163,20.7524753 Z M17.9874213,20.6138613 L17.9874213,23.3861387 C17.9874213,23.3861387 20.671975,23.3825347 21.7650567,23.3825347 C21.173132,25.1797327 20.2527297,26.158416 17.9874213,26.158416 C15.6949247,26.158416 13.9056603,24.2966237 13.9056603,22 C13.9056603,19.7033763 15.6949247,17.841584 17.9874213,17.841584 C19.199497,17.841584 19.9822957,18.2683763 20.7003397,18.8632377 C21.275107,18.2874357 21.2270943,18.2053763 22.6894027,16.8219407 C21.448063,15.6900197 19.7982013,15 17.9874213,15 C14.1283583,15 11,18.13399 11,22 C11,25.8659407 14.1283583,29 17.9874213,29 C23.7556417,29 25.1655093,23.9683167 24.6981133,20.6138613 L17.9874213,20.6138613 L17.9874213,20.6138613 L17.9874213,20.6138613 Z"></path>
                        </g>
                    </g>
                </g>
            </g>
        </g>
    </g>
</svg>